<?xml version="1.0" encoding="UTF-8" standalone="no"?>
<!-- Created with Inkscape (http://www.inkscape.org/) -->

<svg
   xmlns:dc="http://purl.org/dc/elements/1.1/"
   xmlns:cc="http://creativecommons.org/ns#"
   xmlns:rdf="http://www.w3.org/1999/02/22-rdf-syntax-ns#"
   xmlns:svg="http://www.w3.org/2000/svg"
   xmlns="http://www.w3.org/2000/svg"
   xmlns:sodipodi="http://sodipodi.sourceforge.net/DTD/sodipodi-0.dtd"
   xmlns:inkscape="http://www.inkscape.org/namespaces/inkscape"
   width="210mm"
   height="297mm"
   viewBox="0 0 744.09448819 1052.3622047"
   id="svg2"
   version="1.1"
   inkscape:version="0.91 r13725"
   sodipodi:docname="reset_icon.svg">
  <defs
     id="defs4" />
  <sodipodi:namedview
     id="base"
     pagecolor="#ffffff"
     bordercolor="#666666"
     borderopacity="1.0"
     inkscape:pageopacity="0.0"
     inkscape:pageshadow="2"
     inkscape:zoom="1.4"
     inkscape:cx="54.745134"
     inkscape:cy="963.54059"
     inkscape:document-units="px"
     inkscape:current-layer="layer1"
     showgrid="false"
     inkscape:window-width="1280"
     inkscape:window-height="657"
     inkscape:window-x="-8"
     inkscape:window-y="-8"
     inkscape:window-maximized="1" />
  <metadata
     id="metadata7">
    <rdf:RDF>
      <cc:Work
         rdf:about="">
        <dc:format>image/svg+xml</dc:format>
        <dc:type
           rdf:resource="http://purl.org/dc/dcmitype/StillImage" />
        <dc:title></dc:title>
      </cc:Work>
    </rdf:RDF>
  </metadata>
  <g
     inkscape:label="Layer 1"
     inkscape:groupmode="layer"
     id="layer1">
    <path
       style="opacity:0.88;fill:#ffffff;fill-opacity:1;stroke:#000000;stroke-width:1.20000005;stroke-miterlimit:4;stroke-dasharray:none;stroke-dashoffset:0;stroke-opacity:1"
       inkscape:transform-center-x="-6.0963738"
       inkscape:transform-center-y="-0.86148294"
       d="M 31.529211,27.031813 C 30.514204,42.832483 30.512624,57.29583 29.527092,73.09836 51.137959,67.639645 55.779877,66.269539 74.038159,62.962035 L 58.868121,49.918762 C 66.754879,42.037185 78.430249,37.561641 91.258709,37.561476 117.80167,37.561819 139.31891,59.079068 139.31926,85.622028 139.32,112.16575 117.80244,133.68418 91.258719,133.68452 64.714985,133.68417 43.108156,111.71933 43.108868,85.175592 L 26.400171,87.497027 C 26.400054,123.0709 55.68483,150.03426 91.258709,150.03414 126.83259,150.03426 155.67094,121.19591 155.67082,85.622026 155.66987,50.048904 126.83184,21.211982 91.258709,21.211868 73.915429,21.2118 57.53122,27.529732 45.800566,39.069075 Z"
       id="path4151"
       inkscape:connector-curvature="0"
       sodipodi:nodetypes="cccccccccscscc" />
  </g>
</svg>
